<svg xmlns="http://www.w3.org/2000/svg" xmlns:xlink="http://www.w3.org/1999/xlink" viewBox="0 0 105 50"><defs><path id="a" d="M16.8 14.4h8.9c4.1 0 6 1.5 6 3.9 0 2.8-2.3 3.9-5.8 3.9h-9.2v-7.8zm0-13.9h10.1c1.8.5 2.8 1.7 2.8 3.4 0 2.8-2.2 3.9-5.7 3.9h-7.2V.5zM0 0v.5h8.9V29h17.2c8.1 0 13.5-3.1 13.5-9.7 0-4.9-2.7-7.3-6.8-8.9 2.6-1.4 4.7-3.8 4.7-7.8 0-.7-.1-1.4-.3-2.1h9.2V29h7.9V.5h10.8c-2.2 3.1-3.4 6.9-3.4 10.7 0 10.7 7.7 18.5 18.9 18.5 6.6 0 11.8-2.6 15.5-5.7V8.6H80.3v6.8h8.1v5c-2 1.4-4.7 2.1-7.6 2.1-6.4 0-10.8-4.7-10.8-11.2 0-5 2.9-9.2 7.1-10.7h7.3c2 .6 3.5 1.6 5.2 3.1L92.3.6H105V0H0z"/></defs><clipPath id="b"><use xlink:href="#a" overflow="visible"/></clipPath><linearGradient id="c" gradientUnits="userSpaceOnUse" y1="50" x2="1" y2="50" gradientTransform="matrix(104.3345 0 0 -104.3345 .55 5231.602)"><stop offset="0" stop-color="#02d3f4"/><stop offset="1" stop-color="#1c3ede"/></linearGradient><path clip-path="url(#b)" fill="url(#c)" d="M0 0h105v29.8H0z"/><defs><path id="d" d="M40.4 34.9l.8 2.2h-1.7l.9-2.2zm50.3 0l.8 2.2h-1.7l.9-2.2zm-76.8-.7h.8c1.1 0 2.1.8 2.1 2v.1c0 .5-.2 1-.6 1.3h-2.3v-3.4zm75.8-1.8l-2.2 5.2H66.7v-3.4h2.1v-1.8h-6.6v1.8h2.4v3.4h-21l-2.2-5.2h-2l-2.2 5.2H18.6c.2-.4.3-.9.3-1.3 0-2.2-1.6-3.9-4.2-3.9h-2.9v5.2H0v.5h105v-.5H93.9l-2.2-5.2h-2z"/></defs><clipPath id="e"><use xlink:href="#d" overflow="visible"/></clipPath><linearGradient id="f" gradientUnits="userSpaceOnUse" y1="50" x2="1" y2="50" gradientTransform="matrix(104.3345 0 0 -104.3345 .55 5251.96)"><stop offset="0" stop-color="#02d3f4"/><stop offset="1" stop-color="#1c3ede"/></linearGradient><path clip-path="url(#e)" fill="url(#f)" d="M0 32.4h105v5.7H0z"/><defs><path id="g" d="M8.9 44.1v1.1h1.9v4.6h1.3v-4.6h1.8v-1.1z"/></defs><clipPath id="h"><use xlink:href="#g" overflow="visible"/></clipPath><linearGradient id="i" gradientUnits="userSpaceOnUse" y1="50" x2="1" y2="50" gradientTransform="matrix(104.3345 0 0 -104.3345 .55 5263.705)"><stop offset="0" stop-color="#02d3f4"/><stop offset="1" stop-color="#1c3ede"/></linearGradient><path clip-path="url(#h)" fill="url(#i)" d="M8.9 44.1h5v5.7h-5z"/><defs><path id="j" d="M16.3 44.1v5.7h4.4v-1h-3.1v-1.3h2.6v-1h-2.6v-1.3h3.1v-1.1z"/></defs><clipPath id="k"><use xlink:href="#j" overflow="visible"/></clipPath><linearGradient id="l" gradientUnits="userSpaceOnUse" y1="50" x2="1" y2="50" gradientTransform="matrix(104.3345 0 0 -104.3345 .55 5263.705)"><stop offset="0" stop-color="#02d3f4"/><stop offset="1" stop-color="#1c3ede"/></linearGradient><path clip-path="url(#k)" fill="url(#l)" d="M16.3 44.1h4.5v5.7h-4.5z"/><defs><path id="m" d="M24.4 44.7c-1.2 1.1-1.3 3-.2 4.3.6.6 1.4 1 2.2 1 1.1 0 1.8-.3 2.4-1l-.8-.9c-.5.4-.9.7-1.5.7-1 0-1.7-.8-1.7-1.8s.7-1.8 1.7-1.8c.6 0 1.1.2 1.5.6l.8-.9c-.6-.7-1.4-1-2.3-1-.7 0-1.5.3-2.1.8"/></defs><clipPath id="n"><use xlink:href="#m" overflow="visible"/></clipPath><linearGradient id="o" gradientUnits="userSpaceOnUse" y1="50" x2="1" y2="50" gradientTransform="matrix(104.3345 0 0 -104.3345 .55 5263.689)"><stop offset="0" stop-color="#02d3f4"/><stop offset="1" stop-color="#1c3ede"/></linearGradient><path clip-path="url(#n)" fill="url(#o)" d="M23.1 43.9h5.7V50h-5.7z"/><defs><path id="p" d="M35.2 44.1v2.4h-2.4v-2.4h-1.3v5.7h1.3v-2.3h2.4v2.3h1.3v-5.7z"/></defs><clipPath id="q"><use xlink:href="#p" overflow="visible"/></clipPath><linearGradient id="r" gradientUnits="userSpaceOnUse" y1="50" x2="1" y2="50" gradientTransform="matrix(104.3345 0 0 -104.3345 .55 5263.705)"><stop offset="0" stop-color="#02d3f4"/><stop offset="1" stop-color="#1c3ede"/></linearGradient><path clip-path="url(#q)" fill="url(#r)" d="M31.5 44.1h4.9v5.7h-4.9z"/><defs><path id="s" d="M43.3 44.1v3.4l-2.6-3.4h-1.1v5.7H41v-3.6l2.6 3.6h1v-5.7z"/></defs><clipPath id="t"><use xlink:href="#s" overflow="visible"/></clipPath><linearGradient id="u" gradientUnits="userSpaceOnUse" y1="50" x2="1" y2="50" gradientTransform="matrix(104.3345 0 0 -104.3345 .55 5263.705)"><stop offset="0" stop-color="#02d3f4"/><stop offset="1" stop-color="#1c3ede"/></linearGradient><path clip-path="url(#t)" fill="url(#u)" d="M39.6 44.1h5v5.7h-5z"/><defs><path id="v" d="M48.9 47.1c0-.1 0-.1 0 0 0-1 .7-1.8 1.7-1.9h.1c1 0 1.8.8 1.8 1.8v.1c0 1-.7 1.8-1.7 1.8h-.1c-1-.1-1.8-.9-1.8-1.8m1.8-3.1c-1.7 0-3 1.4-2.9 3.1 0 1.6 1.4 2.9 3 2.9h.1c1.6 0 3-1.4 3-3-.1-1.7-1.5-3-3.2-3"/></defs><clipPath id="w"><use xlink:href="#v" overflow="visible"/></clipPath><linearGradient id="x" gradientUnits="userSpaceOnUse" y1="50" x2="1" y2="50" gradientTransform="matrix(104.3345 0 0 -104.3345 .55 5263.72)"><stop offset="0" stop-color="#02d3f4"/><stop offset="1" stop-color="#1c3ede"/></linearGradient><path clip-path="url(#w)" fill="url(#x)" d="M47.7 44h6.1v6h-6.1z"/><defs><path id="y" d="M56.4 44.1v5.7h4.2v-1h-2.8v-4.7z"/></defs><clipPath id="z"><use xlink:href="#y" overflow="visible"/></clipPath><linearGradient id="A" gradientUnits="userSpaceOnUse" y1="50" x2="1" y2="50" gradientTransform="matrix(104.3345 0 0 -104.3345 .55 5263.705)"><stop offset="0" stop-color="#02d3f4"/><stop offset="1" stop-color="#1c3ede"/></linearGradient><path clip-path="url(#z)" fill="url(#A)" d="M56.4 44.1h4.2v5.7h-4.2z"/><defs><path id="B" d="M64.1 47.1c0-.1 0-.1 0 0 0-1 .7-1.8 1.7-1.9h.1c1 0 1.8.8 1.8 1.8v.1c0 1-.7 1.8-1.7 1.8h-.1c-1-.1-1.8-.9-1.8-1.8m1.8-3.1c-1.7 0-3 1.4-3 3.1 0 1.6 1.4 2.9 3 2.9h.1c1.6 0 3-1.4 2.9-3 .1-1.7-1.2-3-3-3 .1 0 0 0 0 0"/></defs><clipPath id="C"><use xlink:href="#B" overflow="visible"/></clipPath><linearGradient id="D" gradientUnits="userSpaceOnUse" y1="50" x2="1" y2="50" gradientTransform="matrix(104.3345 0 0 -104.3345 .55 5263.72)"><stop offset="0" stop-color="#02d3f4"/><stop offset="1" stop-color="#1c3ede"/></linearGradient><path clip-path="url(#C)" fill="url(#D)" d="M62.9 44H69v6h-6.1z"/><defs><path id="E" d="M74.6 44c-1.7 0-3 1.3-3.1 2.9v.1c0 1.7 1.3 3 3.1 3 .9 0 1.8-.3 2.5-.9v-2.3h-2.6v1h1.3v.7c-.3.2-.8.4-1.2.4-1 0-1.8-.8-1.8-1.8s.7-1.8 1.7-1.8c.6 0 1.1.2 1.5.6l.8-1c-.6-.5-1.3-.8-2.1-.8 0-.1 0-.1-.1-.1"/></defs><clipPath id="F"><use xlink:href="#E" overflow="visible"/></clipPath><linearGradient id="G" gradientUnits="userSpaceOnUse" y1="50" x2="1" y2="50" gradientTransform="matrix(104.3345 0 0 -104.3345 .55 5263.718)"><stop offset="0" stop-color="#02d3f4"/><stop offset="1" stop-color="#1c3ede"/></linearGradient><path clip-path="url(#F)" fill="url(#G)" d="M71.6 44h5.6v6h-5.6z"/><defs><path id="H" d="M80.1 44.1h1.3v5.7h-1.3z"/></defs><clipPath id="I"><use xlink:href="#H" overflow="visible"/></clipPath><linearGradient id="J" gradientUnits="userSpaceOnUse" y1="50" x2="1" y2="50" gradientTransform="matrix(104.3345 0 0 -104.3345 .55 5263.705)"><stop offset="0" stop-color="#02d3f4"/><stop offset="1" stop-color="#1c3ede"/></linearGradient><path clip-path="url(#I)" fill="url(#J)" d="M80.1 44.1h1.3v5.7h-1.3z"/><defs><path id="K" d="M84.5 44.1v5.7H89v-1h-3.2v-1.3h2.7v-1h-2.7v-1.3H89v-1.1z"/></defs><clipPath id="L"><use xlink:href="#K" overflow="visible"/></clipPath><linearGradient id="M" gradientUnits="userSpaceOnUse" y1="50" x2="1" y2="50" gradientTransform="matrix(104.3345 0 0 -104.3345 .55 5263.705)"><stop offset="0" stop-color="#02d3f4"/><stop offset="1" stop-color="#1c3ede"/></linearGradient><path clip-path="url(#L)" fill="url(#M)" d="M84.5 44.1H89v5.7h-4.5z"/><defs><path id="N" d="M93.7 44c-1.2 0-2 .6-2 1.7 0 1.2.8 1.6 1.9 1.9 1 .3 1.2.4 1.2.7 0 .3-.3.6-.8.6-.6 0-1.3-.3-1.7-.7l-.8.9c.7.6 1.6.9 2.5.9 1.3 0 2.2-.5 2.2-1.7 0-1-.7-1.6-1.9-1.9-1-.3-1.3-.4-1.3-.8 0-.3.3-.5.8-.5.6 0 1.1.2 1.5.6l.7-1c-.8-.4-1.5-.7-2.3-.7"/></defs><clipPath id="O"><use xlink:href="#N" overflow="visible"/></clipPath><linearGradient id="P" gradientUnits="userSpaceOnUse" y1="50" x2="1" y2="50" gradientTransform="matrix(104.3345 0 0 -104.3345 .55 5263.717)"><stop offset="0" stop-color="#02d3f4"/><stop offset="1" stop-color="#1c3ede"/></linearGradient><path clip-path="url(#O)" fill="url(#P)" d="M91.4 44h4.7v6h-4.7z"/></svg>