<svg id="Layer_1" data-name="Layer 1" xmlns="http://www.w3.org/2000/svg" width="156.55" height="90.94" viewBox="0 0 156.55 90.94"><title>lyceum_logo</title><path d="M125,1.13a4,4,0,0,0,4.82,0L129,0a2.73,2.73,0,0,1-3.29,0ZM131.13,12V2.84h-1.87L125.48,9.1V2.84h-1.85V12h1.87l3.76-6.23V12h1.87Z" style="fill:#2d2d2d"/><path d="M68.76,9.17a1.43,1.43,0,0,1-1.53,1.29,3.27,3.27,0,0,1-1.67-.5V5a2.91,2.91,0,0,1,1.79-.67,1.36,1.36,0,0,1,1.41,1.32V9.17ZM70.69,9V5.8a2.79,2.79,0,0,0-3-3.13,5,5,0,0,0-2.55.73,1.42,1.42,0,0,0-.73-0.72L63.2,3.76a1.33,1.33,0,0,1,.46,1.15V15h1.91V11.77a5.16,5.16,0,0,0,1.93.4A3,3,0,0,0,70.69,9Z" style="fill:#2d2d2d"/><path d="M76.77,9.91a2,2,0,0,1-1.92.64,1.18,1.18,0,0,1-.91-1.11A1.34,1.34,0,0,1,75.36,8h1.41V9.91ZM87.9,12V2.82h-6.3v5.7a2,2,0,0,1-1.73,2.15,1.11,1.11,0,0,1-1.19-1V5.78a2.82,2.82,0,0,0-3.15-3.11,4.51,4.51,0,0,0-3.2,1.25l1,1.24a3.23,3.23,0,0,1,2-.86,1.25,1.25,0,0,1,1.43,1.14v1H75.21A2.84,2.84,0,0,0,72,9.33a2.69,2.69,0,0,0,3,2.84,3.31,3.31,0,0,0,2.12-.88,3.48,3.48,0,0,0,2.71.94c2.17-.07,3.56-1.24,3.5-3.77V4.39H86V12H87.9Z" style="fill:#2d2d2d"/><polygon points="113.11 12.03 109.69 7.17 112.88 2.84 110.71 2.84 108.32 6.44 107.15 6.44 107.15 2.82 105.28 2.82 105.28 12.03 107.11 12.03 107.13 8.01 108.3 8.01 110.93 12.03 113.11 12.03" style="fill:#2d2d2d"/><path d="M91.74,10.45h1.6a1.4,1.4,0,0,0,1.18-1.54,1.27,1.27,0,0,0-1.21-1.39H91.74v2.93ZM89.83,12V2.82h1.91V5.94h1.35c2.24,0,3.42,1.36,3.4,2.93A3.16,3.16,0,0,1,93.11,12H89.83Z" style="fill:#2d2d2d"/><path d="M104.07,11L103.28,9.6a4.07,4.07,0,0,1-2.28,1,1.34,1.34,0,0,1-1.53-1.19V5.83a1.52,1.52,0,0,1,1.64-1.4,2.83,2.83,0,0,1,1.88.93l1-1.25a3.76,3.76,0,0,0-3.09-1.42,3.08,3.08,0,0,0-3.34,3.15V9.29c0,2,1.51,2.87,3.38,2.87A4.84,4.84,0,0,0,104.07,11" style="fill:#2d2d2d"/><polygon points="121.69 12.02 121.69 2.84 119.82 2.84 116.04 9.1 116.04 2.84 114.19 2.84 114.19 12.02 116.04 12.02 116.06 12.02 119.82 5.79 119.82 12.02 121.69 12.02" style="fill:#2d2d2d"/><path d="M63.15,0H61L59.37,5.47c0,0.1-.07.21-0.1,0.32s0,0.2-.06.28l0,0.12,0-.11-0.06-.27L59,5.49,56.6,0H54.42l3.9,8.56-0.25.62a2.83,2.83,0,0,1-2.6,1.5l0.23,1.49c2.16,0,3.58-.91,4.13-2.52Z" style="fill:#2d2d2d"/><path d="M150,16.69a4,4,0,0,0,4.82,0L154,15.57a2.73,2.73,0,0,1-3.29,0Zm6.16,10.89V18.41h-1.87l-3.78,6.26V18.41h-1.85v9.18h1.87l3.76-6.23v6.23h1.87Z" style="fill:#2d2d2d"/><rect x="144.84" y="18.41" width="1.87" height="9.18" style="fill:#2d2d2d"/><path d="M139.06,26h1.6a1.4,1.4,0,0,0,1.18-1.54,1.27,1.27,0,0,0-1.21-1.39h-1.58V26Zm-1.91,1.59V18.41h1.91v3.12h1.35c2.24,0,3.42,1.37,3.4,2.93a3.16,3.16,0,0,1-3.38,3.16h-3.28Z" style="fill:#2d2d2d"/><path d="M63.29,24.74A1.3,1.3,0,0,1,61.91,26a1.21,1.21,0,0,1-1.11-.5V20.74h0A1.56,1.56,0,0,1,62,19.91a1.24,1.24,0,0,1,1.27,1.32v3.51ZM58.9,20.47h0v4.78a1.21,1.21,0,0,1-1.11.5,1.3,1.3,0,0,1-1.38-1.29V21.23a1.24,1.24,0,0,1,1.27-1.32A1.56,1.56,0,0,1,58.9,20.47Zm6.32,4.07V21.37c0-2-.92-3.13-2.89-3.13a3.11,3.11,0,0,0-1.52.4V16.91H58.9v1.73a3.11,3.11,0,0,0-1.52-.4c-2,0-2.89,1.14-2.89,3.13v3.17a2.89,2.89,0,0,0,3,3.19,2.84,2.84,0,0,0,1.37-.4v3.21h1.91V27.34a2.84,2.84,0,0,0,1.37.4A2.89,2.89,0,0,0,65.22,24.54Z" style="fill:#2d2d2d"/><path d="M71.64,21v1.14H68.79v-1a1.36,1.36,0,0,1,1.53-1.29A1.26,1.26,0,0,1,71.64,21m2.13,5.51L73,25.08a4,4,0,0,1-2.55,1,1.45,1.45,0,0,1-1.62-1.49V23.72h4.77V21.49a2.94,2.94,0,0,0-3.25-3.23c-2,0-3.45,1-3.45,3.34v3.06c0,2,1.35,3.08,3.4,3.08A5.69,5.69,0,0,0,73.76,26.52Z" style="fill:#2d2d2d"/><path d="M77.5,26a3.78,3.78,0,0,0,.74-2.49V20h2.62V26H77.5Zm5.23,0V18.41h-6.3v5.07c0,1.16-.68,2.53-1.69,2.56H74.56v3.8h1.82V27.61h5.53v2.23h1.86V26h-1Z" style="fill:#2d2d2d"/><polygon points="135.22 27.59 135.22 18.41 133.35 18.41 133.35 21.99 129.57 21.99 129.57 18.41 127.72 18.41 127.72 27.59 129.57 27.59 129.57 23.56 133.35 23.56 133.35 27.59 135.22 27.59" style="fill:#2d2d2d"/><path d="M98.6,24.76A1.43,1.43,0,0,1,97.08,26a3.29,3.29,0,0,1-1.67-.5V20.6a2.91,2.91,0,0,1,1.79-.67,1.36,1.36,0,0,1,1.41,1.32v3.51Zm1.93-.2V21.39a2.79,2.79,0,0,0-3-3.13,5,5,0,0,0-2.55.73,1.42,1.42,0,0,0-.73-0.72L93,19.35a1.33,1.33,0,0,1,.46,1.15V30.56H95.4V27.35a5.22,5.22,0,0,0,1.94.4A3,3,0,0,0,100.53,24.56Z" style="fill:#2d2d2d"/><path d="M106.61,25.49c-0.7.91-2.79,1-2.82-.47a1.34,1.34,0,0,1,1.41-1.42h1.41v1.88Zm11.13,2.11v-9.2h-6.3v5.7a2,2,0,0,1-1.73,2.15,1.11,1.11,0,0,1-1.19-1V21.37a2.82,2.82,0,0,0-3.15-3.11,4.5,4.5,0,0,0-3.2,1.25l1,1.24a3.23,3.23,0,0,1,2-.86A1.25,1.25,0,0,1,106.61,21v1H105a2.84,2.84,0,0,0-3.17,2.91,2.69,2.69,0,0,0,3,2.84,3.32,3.32,0,0,0,2.12-.88,3.47,3.47,0,0,0,2.7.94c2.17-.07,3.56-1.24,3.5-3.77V20h2.62v7.63h1.87Z" style="fill:#2d2d2d"/><path d="M121.58,26h1.6a1.4,1.4,0,0,0,1.18-1.54,1.28,1.28,0,0,0-1.21-1.39h-1.57V26Zm-1.91,1.59V18.41h1.91v3.12h1.35c2.24,0,3.42,1.37,3.4,2.93a3.16,3.16,0,0,1-3.38,3.16h-3.28Z" style="fill:#2d2d2d"/><path d="M89.76,21v1.14H86.91v-1a1.36,1.36,0,0,1,1.53-1.29A1.26,1.26,0,0,1,89.76,21m2.13,5.51-0.8-1.44a4,4,0,0,1-2.55,1,1.45,1.45,0,0,1-1.62-1.49V23.72h4.77V21.49a2.94,2.94,0,0,0-3.25-3.23c-2,0-3.45,1-3.45,3.34v3.06c0,2,1.35,3.08,3.4,3.08A5.69,5.69,0,0,0,91.89,26.52Z" style="fill:#2d2d2d"/><path d="M62.36,34H60.28L58.4,41.13a4.51,4.51,0,0,0-.2-1.3L56.6,34l-2.11,0s2.46,7.78,3,9.14a2.45,2.45,0,0,1-2.33,2.14l0.18,1.39a3.63,3.63,0,0,0,3.75-2.54Z" style="fill:#2d2d2d"/><polygon points="71.06 43.18 71.06 34 69.19 34 69.19 37.58 65.41 37.58 65.41 34 63.55 34 63.55 43.18 65.41 43.18 65.41 39.16 69.19 39.16 69.19 43.18 71.06 43.18" style="fill:#2d2d2d"/><polygon points="80.49 43.18 80.49 34 78.62 34 74.84 40.26 74.84 34 72.99 34 72.99 43.18 74.84 43.18 74.86 43.18 78.62 36.95 78.62 43.18 80.49 43.18" style="fill:#2d2d2d"/><path d="M84.33,41.58h1.6a1.17,1.17,0,0,0,1.18-1.29,1.09,1.09,0,0,0-1.21-1.16H84.33v2.45Zm0-6v2H85.7a0.89,0.89,0,0,0,1-1,1,1,0,0,0-.94-1h-1.4Zm-1.91,7.59V34H85.7c2.25,0,3,1.37,2.93,2.42a2,2,0,0,1-1.12,1.84,2.27,2.27,0,0,1,1.56,2.19c0,1.32-1,2.73-3.23,2.73H82.42Z" style="fill:#2d2d2d"/><polygon points="124.19 34 124.19 35.57 126.51 35.57 126.5 43.2 126.63 43.2 128.37 43.2 128.49 43.2 128.49 35.57 130.81 35.57 130.81 34 124.19 34" style="fill:#2d2d2d"/><polygon points="139.43 34 139.43 35.57 141.75 35.57 141.75 43.2 141.87 43.2 143.62 43.2 143.74 43.2 143.74 35.57 146.06 35.57 146.06 34 139.43 34" style="fill:#2d2d2d"/><polygon points="122.8 43.18 122.8 34 120.93 34 117.15 40.26 117.15 34 115.3 34 115.3 43.18 117.15 43.18 117.17 43.18 120.93 36.95 120.93 43.18 122.8 43.18" style="fill:#2d2d2d"/><path d="M104,40.33a1.43,1.43,0,0,1-1.52,1.29,3.28,3.28,0,0,1-1.68-.5V36.17a2.91,2.91,0,0,1,1.79-.67A1.36,1.36,0,0,1,104,36.82v3.51Zm1.93-.2V37a2.79,2.79,0,0,0-3-3.13,5,5,0,0,0-2.55.73,1.42,1.42,0,0,0-.72-0.72l-1.18,1.08a1.33,1.33,0,0,1,.46,1.15V46.13h1.91V42.92a5.2,5.2,0,0,0,1.94.4A3,3,0,0,0,105.93,40.13Z" style="fill:#2d2d2d"/><path d="M114.08,42.12l-0.78-1.39a4.07,4.07,0,0,1-2.27,1,1.34,1.34,0,0,1-1.53-1.19V37a1.52,1.52,0,0,1,1.64-1.4,2.83,2.83,0,0,1,1.88.93l1-1.25a3.76,3.76,0,0,0-3.09-1.42A3.08,3.08,0,0,0,107.57,37v3.45c0,2,1.51,2.87,3.38,2.87a4.83,4.83,0,0,0,3.13-1.18" style="fill:#2d2d2d"/><path d="M136.56,36.57v1.14h-2.85v-1a1.36,1.36,0,0,1,1.53-1.29,1.26,1.26,0,0,1,1.32,1.15m2.13,5.51-0.8-1.44a4,4,0,0,1-2.55,1,1.45,1.45,0,0,1-1.62-1.49V39.29h4.77V37.05a2.94,2.94,0,0,0-3.25-3.22c-2,0-3.45,1-3.45,3.34v3.06c0,2,1.34,3.08,3.39,3.08A5.7,5.7,0,0,0,138.69,42.09Z" style="fill:#2d2d2d"/><path d="M95.19,36.57v1.14H92.35v-1a1.36,1.36,0,0,1,1.53-1.29,1.26,1.26,0,0,1,1.32,1.15m2.13,5.51-0.8-1.44a4,4,0,0,1-2.55,1,1.45,1.45,0,0,1-1.62-1.49V39.29h4.77V37.05a2.94,2.94,0,0,0-3.25-3.22c-2,0-3.45,1-3.45,3.34v3.06c0,2,1.34,3.08,3.39,3.08A5.7,5.7,0,0,0,97.32,42.09Z" style="fill:#2d2d2d"/><path d="M124.35,64.24H122.3v2.15h-0.75V61.64h0.75v2h2.05v-2h0.76v4.75h-0.76V64.24Zm-4.46-1.34-0.45.8-1.59,2.68h-0.7V61.64h0.7v3.49l0,0,0.5-.87,1.54-2.64h0.69v4.75h-0.69V62.91h0Zm-6.67,2.83h2v-4.1H116v4.09l0.52,0,0,2.06H115.8l0-1.42h-3.32V61.64h0.76v4.1Zm-5.1-4.1h0.74v1.94h1.23a2.45,2.45,0,0,1,.5.05,1.4,1.4,0,0,1,.49.2,1.17,1.17,0,0,1,.38.42,1.45,1.45,0,0,1,.15.7,1.36,1.36,0,0,1-.15.67,1.4,1.4,0,0,1-.39.44,1.48,1.48,0,0,1-.51.25,2,2,0,0,1-.51.07h-1.93V61.64Zm1.87,4.1,0.28,0,0.28-.13,0.22-.24a0.74,0.74,0,0,0,.09-0.38,0.72,0.72,0,0,0-.07-0.35l-0.2-.22a0.93,0.93,0,0,0-.3-0.12,1.58,1.58,0,0,0-.36,0h-1.07v1.53H110Zm-5.22-3.45v1.09a11.7,11.7,0,0,1-.06,1.27,3.25,3.25,0,0,1-.21.9,1.81,1.81,0,0,1-.41.62,2.5,2.5,0,0,1-.65.45l-0.29-.53a2.77,2.77,0,0,0,.49-0.45,1.62,1.62,0,0,0,.28-0.51,2.67,2.67,0,0,0,.13-0.67q0-.39,0-0.94V61.64h3v4.75h-0.76v-4.1h-1.51Zm-5.36-2.69h3.5v0.72h-2.69v2.16h2.37v0.72h-2.37v2.47h2.69v0.72h-3.5V59.61ZM97,66.49a0.59,0.59,0,0,1-.44-0.18,0.63,0.63,0,0,1,0-.88A0.59,0.59,0,0,1,97,65.25,0.62,0.62,0,1,1,97,66.49Zm-2.44-3.27H92v3.17H91.13V59.61H92v2.9h2.6v-2.9H95.4v6.79H94.57V63.23Zm-5.78,3.27a0.58,0.58,0,0,1-.44-0.18,0.63,0.63,0,0,1,0-.88,0.58,0.58,0,0,1,.44-0.18A0.62,0.62,0,1,1,88.79,66.49Zm-3.63-.8a1.78,1.78,0,0,0,.45-0.06,1.31,1.31,0,0,0,.45-0.21A1.15,1.15,0,0,0,86.4,65a1.33,1.33,0,0,0,.13-0.63,1.23,1.23,0,0,0-.13-0.6,1,1,0,0,0-.34-0.37,1.41,1.41,0,0,0-.48-0.19A2.58,2.58,0,0,0,85,63.17h-1v2.52h1.11Zm-1.94-6.08h3.47v0.72H84.06v2.13h1.25a3.32,3.32,0,0,1,.64.07,1.86,1.86,0,0,1,.67.28,1.69,1.69,0,0,1,.54.59,2,2,0,0,1,.22,1,1.92,1.92,0,0,1-.23,1,1.85,1.85,0,0,1-.57.6,2.12,2.12,0,0,1-.71.3,3.07,3.07,0,0,1-.66.08h-2V59.61ZM79,62.91l-0.45.8L77,66.39h-0.7V61.64H77v3.49l0,0,0.5-.87,1.54-2.64h0.69v4.75H79.06V62.91h0Zm-4.39,0-0.45.8-1.59,2.68h-0.7V61.64h0.7v3.49l0.05,0,0.5-.87,1.54-2.64h0.69v4.75H74.67V62.91h0Zm-4.86,3.63a1.65,1.65,0,0,1-1.39-.64,2.76,2.76,0,0,1-.5-1.73A4.1,4.1,0,0,1,68,63.06a2.52,2.52,0,0,1,.4-0.84A1.71,1.71,0,0,1,69,61.68a1.79,1.79,0,0,1,.82-0.18,3.77,3.77,0,0,1,.82.08,2.36,2.36,0,0,1,.67.25l-0.19.56-0.56-.15a3.1,3.1,0,0,0-.68-0.08,1,1,0,0,0-.91.51A2.72,2.72,0,0,0,68.72,64a4.9,4.9,0,0,0,0,.67,1.88,1.88,0,0,0,.17.59,1.17,1.17,0,0,0,.35.43,1,1,0,0,0,.57.16,2.93,2.93,0,0,0,.72-0.08,5.67,5.67,0,0,0,.62-0.19l0.2,0.58a3.19,3.19,0,0,1-.68.26A3.65,3.65,0,0,1,69.77,66.53Zm-3.91,0a1.65,1.65,0,0,1-1.39-.64,2.75,2.75,0,0,1-.5-1.73,4.1,4.1,0,0,1,.14-1.11,2.57,2.57,0,0,1,.4-0.84,1.72,1.72,0,0,1,.62-0.53A1.8,1.8,0,0,1,66,61.5a3.79,3.79,0,0,1,.82.08,2.34,2.34,0,0,1,.67.25l-0.19.56a5.82,5.82,0,0,0-.56-0.15A3.08,3.08,0,0,0,66,62.16a1,1,0,0,0-.91.51A2.74,2.74,0,0,0,64.8,64a5.09,5.09,0,0,0,0,.67,1.91,1.91,0,0,0,.17.59,1.16,1.16,0,0,0,.35.43,0.94,0.94,0,0,0,.57.16,2.91,2.91,0,0,0,.71-0.08,5.61,5.61,0,0,0,.63-0.19l0.2,0.58a3.17,3.17,0,0,1-.68.26A3.65,3.65,0,0,1,65.85,66.53Zm-4.57-4.4a1,1,0,0,0-.55.14,1,1,0,0,0-.34.39,1.89,1.89,0,0,0-.17.58,4.74,4.74,0,0,0-.05.7,5.74,5.74,0,0,0,.05.78,2.11,2.11,0,0,0,.17.62,1,1,0,0,0,.34.41,1,1,0,0,0,.55.14,1,1,0,0,0,.54-0.14,1,1,0,0,0,.34-0.39,2.11,2.11,0,0,0,.18-0.61A5.35,5.35,0,0,0,62.39,64a4.73,4.73,0,0,0,0-.7,1.91,1.91,0,0,0-.18-0.59,1.12,1.12,0,0,0-.34-0.41A0.9,0.9,0,0,0,61.28,62.13Zm0,4.4a1.83,1.83,0,0,1-.88-0.19,1.64,1.64,0,0,1-.59-0.53A2.34,2.34,0,0,1,59.44,65a4.66,4.66,0,0,1,0-1.94,2.32,2.32,0,0,1,.33-0.81,1.73,1.73,0,0,1,.6-0.56,1.84,1.84,0,0,1,.91-0.21,1.91,1.91,0,0,1,.9.19,1.63,1.63,0,0,1,.61.53,2.28,2.28,0,0,1,.34.79,4.34,4.34,0,0,1,.1,1,4.41,4.41,0,0,1-.1,1,2.38,2.38,0,0,1-.34.81,1.71,1.71,0,0,1-.62.56A1.92,1.92,0,0,1,61.24,66.53Zm-5.16-6.2v2.5H56.8a3.41,3.41,0,0,0,.52,0,1,1,0,0,0,.44-0.17,0.92,0.92,0,0,0,.3-0.4,1.8,1.8,0,0,0,.11-0.71,1.45,1.45,0,0,0-.12-0.65,0.89,0.89,0,0,0-.3-0.36,1,1,0,0,0-.41-0.15l-0.43,0H56.08Zm0,3.21v2.85H55.25V59.61H57a5.54,5.54,0,0,1,.64,0,1.73,1.73,0,0,1,.67.23,1.49,1.49,0,0,1,.53.57,2.14,2.14,0,0,1,.21,1,2.32,2.32,0,0,1-.2,1,1.67,1.67,0,0,1-.51.63,1.82,1.82,0,0,1-.7.31,3.6,3.6,0,0,1-.78.08H56.08Zm99.23-8.81-0.56,0a2.34,2.34,0,0,0-.6.15,1.36,1.36,0,0,0-.48.32,0.76,0.76,0,0,0-.19.55,1,1,0,0,0,.14.58,0.6,0.6,0,0,0,.52.2,0.9,0.9,0,0,0,.28-0.06l0.33-.14,0.32-.19,0.24-.19V54.73Zm1.24,2.33-0.34.1a1.44,1.44,0,0,1-.35,0,0.59,0.59,0,0,1-.32-0.07,0.56,0.56,0,0,1-.18-0.33l0-.19L154.8,57a1.89,1.89,0,0,1-.41.22,1,1,0,0,1-.32.06,1.52,1.52,0,0,1-.73-0.15,1.11,1.11,0,0,1-.41-0.36,1.15,1.15,0,0,1-.18-0.45,2.79,2.79,0,0,1,0-.43,1.38,1.38,0,0,1,.2-0.76,1.55,1.55,0,0,1,.54-0.51,2.76,2.76,0,0,1,.82-0.29,5.81,5.81,0,0,1,1-.1V53.8a1,1,0,0,0-.18-0.66,0.85,0.85,0,0,0-.7-0.23,2.62,2.62,0,0,0-.67.08l-0.57.17L153,52.62a3.23,3.23,0,0,1,.73-0.3,3,3,0,0,1,.8-0.11,1.57,1.57,0,0,1,1.2.38,1.46,1.46,0,0,1,.35,1v3h0.47v0.5Zm-5.51,0h-0.76V53H149V52.36h3.38V53H151v4.11ZM147.65,55H145.6v2.15h-0.75V52.36h0.75v2h2.05v-2h0.76v4.76h-0.76V55Zm-5.37-2.11a0.79,0.79,0,0,0-.46.13,1.15,1.15,0,0,0-.32.34,1.54,1.54,0,0,0-.19.46,2.13,2.13,0,0,0-.06.49h2.07a3.35,3.35,0,0,0,0-.56,1.2,1.2,0,0,0-.16-0.45,0.84,0.84,0,0,0-.32-0.3A1.07,1.07,0,0,0,142.28,52.85Zm-1,2.05c0,0.2,0,.4,0,0.6a1.42,1.42,0,0,0,.16.54,1,1,0,0,0,.38.4,1.31,1.31,0,0,0,.69.16,4.18,4.18,0,0,0,.65-0.05,3.42,3.42,0,0,0,.71-0.2l0.22,0.56a4,4,0,0,1-.72.25,3.54,3.54,0,0,1-.89.1,2.44,2.44,0,0,1-1-.19,1.57,1.57,0,0,1-.63-0.52,2,2,0,0,1-.32-0.79,5.49,5.49,0,0,1-.08-1,5.94,5.94,0,0,1,.06-0.76,2.82,2.82,0,0,1,.25-0.84,1.88,1.88,0,0,1,.56-0.69,1.59,1.59,0,0,1,1-.28,2,2,0,0,1,1,.22,1.44,1.44,0,0,1,.56.6,2.35,2.35,0,0,1,.23.86c0,0.33,0,.67,0,1h-2.9ZM136,58.54h-0.71l0-2.07,0.43,0a1.44,1.44,0,0,0,.23-0.29,1.77,1.77,0,0,0,.17-0.4,3.46,3.46,0,0,0,.12-0.57c0-.22.05-0.49,0.07-0.81l0.11-2h3v4.11h0.49l0,2.06h-0.7l0-1.43H136ZM137,53L137,54.36c0,0.26,0,.49,0,0.7a4.66,4.66,0,0,1-.08.56,3.71,3.71,0,0,1-.13.46,1.83,1.83,0,0,1-.18.38h2.15V53H137Zm-3.1.61-0.45.8-1.59,2.68h-0.7V52.36h0.7v3.49l0,0,0.5-.87L134,52.36h0.69v4.76H134V53.62h0Zm-5.46,3.6a3,3,0,0,1-.9-0.12,2.87,2.87,0,0,1-.68-0.32l0.29-.5a2.85,2.85,0,0,0,.58.21,2.51,2.51,0,0,0,.64.08,1.36,1.36,0,0,0,.78-0.2,0.71,0.71,0,0,0,.3-0.64l0-.26-0.14-.27A0.78,0.78,0,0,0,129,55a1.26,1.26,0,0,0-.5-0.08h-0.67v-0.6h0.72a0.71,0.71,0,0,0,.83-0.78l0-.24-0.14-.22a0.8,0.8,0,0,0-.28-0.16,1.45,1.45,0,0,0-.48-0.06l-0.24,0-0.3.07-0.31.1-0.29.13-0.28-.52a3.21,3.21,0,0,1,1.64-.44,2.08,2.08,0,0,1,.7.1,1.31,1.31,0,0,1,.47.28,1,1,0,0,1,.26.42,1.59,1.59,0,0,1,.08.51,1.09,1.09,0,0,1-.19.67,1.19,1.19,0,0,1-.51.39,1,1,0,0,1,.62.44,1.37,1.37,0,0,1,.17.7,1.49,1.49,0,0,1-.14.66,1.31,1.31,0,0,1-.39.47,1.68,1.68,0,0,1-.58.28A2.53,2.53,0,0,1,128.49,57.22Zm-3.76-4.37a0.79,0.79,0,0,0-.46.13,1.12,1.12,0,0,0-.32.34,1.6,1.6,0,0,0-.19.46,2.06,2.06,0,0,0-.06.49h2.07a3.23,3.23,0,0,0,0-.56,1.18,1.18,0,0,0-.16-0.45,0.85,0.85,0,0,0-.32-0.3A1.06,1.06,0,0,0,124.73,52.85Zm-1,2.05c0,0.2,0,.4,0,0.6a1.46,1.46,0,0,0,.16.54,1,1,0,0,0,.38.4,1.3,1.3,0,0,0,.69.16,4.16,4.16,0,0,0,.64-0.05,3.38,3.38,0,0,0,.71-0.2l0.22,0.56a4,4,0,0,1-.72.25,3.54,3.54,0,0,1-.89.1,2.44,2.44,0,0,1-1-.19,1.58,1.58,0,0,1-.63-0.52,2,2,0,0,1-.32-0.79,5.27,5.27,0,0,1-.08-1,5.75,5.75,0,0,1,.06-0.76,2.75,2.75,0,0,1,.25-0.84,1.89,1.89,0,0,1,.56-0.69,1.59,1.59,0,0,1,1-.28,2.05,2.05,0,0,1,1,.22,1.45,1.45,0,0,1,.56.6,2.4,2.4,0,0,1,.23.86c0,0.33,0,.67,0,1h-2.9Zm-4.4,1.29a4.72,4.72,0,0,0,.52.29,1.43,1.43,0,0,0,.62.14,0.65,0.65,0,0,0,.51-0.2,1.21,1.21,0,0,0,.27-0.49,2.59,2.59,0,0,0,.1-0.6c0-.21,0-0.39,0-0.54a6.88,6.88,0,0,0,0-.8,1.94,1.94,0,0,0-.14-0.57,0.79,0.79,0,0,0-.28-0.35,0.82,0.82,0,0,0-.46-0.12,1.08,1.08,0,0,0-.31,0l-0.3.13-0.27.17-0.23.18v2.71Zm-0.2-3.84,0.19,0.5,0.48-.31a1.59,1.59,0,0,1,.8-0.32,1.36,1.36,0,0,1,.79.22,1.57,1.57,0,0,1,.48.58,2.62,2.62,0,0,1,.24.82,6.63,6.63,0,0,1,.06.93,5.77,5.77,0,0,1-.06.85,2.45,2.45,0,0,1-.25.8,1.68,1.68,0,0,1-.52.6,1.45,1.45,0,0,1-.87.24,1.84,1.84,0,0,1-1.16-.47v2.29h-0.77V52.36h0.57ZM116.64,51h-2.51v6.06H113.3V50.32h4.17v6.79h-0.83V51Zm-8.6,1.8a1,1,0,0,0-.55.14,1,1,0,0,0-.34.39A1.92,1.92,0,0,0,107,54a4.61,4.61,0,0,0-.05.7,5.51,5.51,0,0,0,.05.78,2.15,2.15,0,0,0,.17.62,0.89,0.89,0,0,0,.89.55,0.89,0.89,0,0,0,.88-0.53,2.14,2.14,0,0,0,.18-0.61,5.17,5.17,0,0,0,.05-0.78,4.91,4.91,0,0,0,0-.7,1.92,1.92,0,0,0-.18-0.58,1.12,1.12,0,0,0-.34-0.41A0.9,0.9,0,0,0,108,52.85Zm0,4.4a1.83,1.83,0,0,1-.88-0.19,1.61,1.61,0,0,1-.59-0.53,2.29,2.29,0,0,1-.33-0.79,4.35,4.35,0,0,1-.1-1,4.55,4.55,0,0,1,.1-1,2.36,2.36,0,0,1,.33-0.81,1.71,1.71,0,0,1,.6-0.56,1.84,1.84,0,0,1,.91-0.21,1.92,1.92,0,0,1,.9.19,1.66,1.66,0,0,1,.61.53,2.26,2.26,0,0,1,.34.79,4.27,4.27,0,0,1,.1,1,4.34,4.34,0,0,1-.1,1,2.36,2.36,0,0,1-.34.81,1.71,1.71,0,0,1-.61.56A1.92,1.92,0,0,1,108,57.25Zm-4.47-.14h-0.76V52.36h2.91V53h-2.15v4.1ZM100,52.85a1,1,0,0,0-.55.14,1,1,0,0,0-.34.39,2,2,0,0,0-.17.58,4.76,4.76,0,0,0,0,.7,5.7,5.7,0,0,0,0,.78,2.23,2.23,0,0,0,.17.62,1,1,0,0,0,.34.41,1.13,1.13,0,0,0,1.09,0,1,1,0,0,0,.34-0.39,2.11,2.11,0,0,0,.18-0.61,5.16,5.16,0,0,0,.06-0.78,4.74,4.74,0,0,0,0-.7,1.92,1.92,0,0,0-.18-0.58,1.12,1.12,0,0,0-.34-0.41A0.9,0.9,0,0,0,100,52.85Zm0,4.4a1.83,1.83,0,0,1-.88-0.19,1.6,1.6,0,0,1-.59-0.53,2.31,2.31,0,0,1-.33-0.79,4.42,4.42,0,0,1-.1-1,4.48,4.48,0,0,1,.1-1A2.29,2.29,0,0,1,98.47,53a1.71,1.71,0,0,1,.6-0.56,1.83,1.83,0,0,1,.91-0.21,1.93,1.93,0,0,1,.9.19,1.66,1.66,0,0,1,.6.53,2.26,2.26,0,0,1,.34.79,4.27,4.27,0,0,1,.1,1,4.34,4.34,0,0,1-.1,1,2.34,2.34,0,0,1-.34.81,1.7,1.7,0,0,1-.61.56A1.92,1.92,0,0,1,99.94,57.25ZM96.38,53.6a0.53,0.53,0,0,0-.07-0.29l-0.18-.18L95.89,53l-0.21,0H94.54V54.3h1.09A0.64,0.64,0,0,0,96.38,53.6Zm0.2,2.12a0.72,0.72,0,0,0-.24-0.6,1.07,1.07,0,0,0-.67-0.19H94.54v1.54h1.19l0.3,0,0.27-.12,0.2-.23A0.72,0.72,0,0,0,96.57,55.72Zm0.75,0a1.35,1.35,0,0,1-.4,1,1.53,1.53,0,0,1-1.13.4h-2V52.36h1.9a1.7,1.7,0,0,1,1,.29,1,1,0,0,1,.4.9,1.33,1.33,0,0,1-.15.61,0.93,0.93,0,0,1-.51.44,1,1,0,0,1,.65.4A1.26,1.26,0,0,1,97.33,55.73ZM90,56.19a4.75,4.75,0,0,0,.53.29,1.42,1.42,0,0,0,.62.14,0.65,0.65,0,0,0,.51-0.2A1.24,1.24,0,0,0,92,55.93a2.65,2.65,0,0,0,.1-0.6c0-.21,0-0.39,0-0.54a6.88,6.88,0,0,0,0-.8,1.91,1.91,0,0,0-.14-0.57,0.81,0.81,0,0,0-.28-0.35A0.83,0.83,0,0,0,91.15,53l-0.31,0a1.74,1.74,0,0,0-.3.13l-0.27.17L90,53.49v2.71Zm-0.2-3.84L90,52.85l0.49-.31a1.58,1.58,0,0,1,.8-0.32,1.36,1.36,0,0,1,.79.22,1.55,1.55,0,0,1,.49.58,2.66,2.66,0,0,1,.24.82,6.63,6.63,0,0,1,.06.93,5.77,5.77,0,0,1-.06.85,2.54,2.54,0,0,1-.25.8,1.68,1.68,0,0,1-.52.6,1.46,1.46,0,0,1-.87.24A1.85,1.85,0,0,1,90,56.8v2.29H89.27V52.36h0.58Zm-3.24.5a0.79,0.79,0,0,0-.46.13,1.15,1.15,0,0,0-.32.34,1.57,1.57,0,0,0-.19.46,2.06,2.06,0,0,0-.06.49h2.07a3.36,3.36,0,0,0,0-.56,1.2,1.2,0,0,0-.16-0.45,0.84,0.84,0,0,0-.32-0.3A1.07,1.07,0,0,0,86.6,52.85Zm-1,2.05c0,0.2,0,.4,0,0.6a1.46,1.46,0,0,0,.16.54,1,1,0,0,0,.38.4,1.3,1.3,0,0,0,.69.16,4.16,4.16,0,0,0,.64-0.05,3.44,3.44,0,0,0,.72-0.2l0.22,0.56a4,4,0,0,1-.72.25,3.54,3.54,0,0,1-.89.1,2.46,2.46,0,0,1-1-.19,1.58,1.58,0,0,1-.63-0.52,2,2,0,0,1-.32-0.79,5.37,5.37,0,0,1-.08-1A5.78,5.78,0,0,1,84.79,54,2.78,2.78,0,0,1,85,53.18a1.88,1.88,0,0,1,.56-0.69,1.59,1.59,0,0,1,1-.28,2.06,2.06,0,0,1,1,.22,1.44,1.44,0,0,1,.56.6,2.35,2.35,0,0,1,.23.86q0,0.49,0,1h-2.9ZM83.11,53H81.19v4.11H80.42V52.36h3.46v4.76H83.11V53Zm-6.67.62-0.45.8L74.4,57.11H73.7V52.36h0.7v3.49l0,0,0.5-.87,1.54-2.64h0.69v4.76H76.49V53.62h0ZM72,55H70v2.15H69.24V52.36H70v2H72v-2h0.76v4.76H72V55Zm-5.37-2.11a0.79,0.79,0,0,0-.46.13,1.15,1.15,0,0,0-.32.34,1.57,1.57,0,0,0-.19.46,2.06,2.06,0,0,0-.06.49h2.07a3.23,3.23,0,0,0,0-.56,1.2,1.2,0,0,0-.16-0.45,0.84,0.84,0,0,0-.32-0.3A1.06,1.06,0,0,0,66.68,52.85Zm-1,2.05c0,0.2,0,.4,0,0.6a1.42,1.42,0,0,0,.16.54,1,1,0,0,0,.38.4,1.3,1.3,0,0,0,.69.16,4.16,4.16,0,0,0,.64-0.05,3.44,3.44,0,0,0,.72-0.2l0.22,0.56a4,4,0,0,1-.72.25,3.54,3.54,0,0,1-.89.1,2.44,2.44,0,0,1-1-.19,1.58,1.58,0,0,1-.63-0.52,2,2,0,0,1-.32-0.79,5.37,5.37,0,0,1-.08-1A5.78,5.78,0,0,1,64.86,54a2.78,2.78,0,0,1,.25-0.84,1.9,1.9,0,0,1,.56-0.69,1.59,1.59,0,0,1,1-.28,2.06,2.06,0,0,1,1,.22,1.44,1.44,0,0,1,.56.6,2.37,2.37,0,0,1,.23.86q0,0.49,0,1h-2.9Zm-5.27,2.21h-0.7V52.36h1l1,2.35,0.18,0.37L62,54.7l1-2.34h1v4.76h-0.7V53.47l-0.09.17L62.08,56H61.59l-1.13-2.39-0.09-.17v3.65ZM58,53.62l-0.45.8L56,57.11h-0.7V52.36H56v3.49l0.05,0L56.5,55,58,52.36h0.69v4.76H58V53.62h0Z" style="fill:#2d2d2d"/><path d="M128.48,64a5.2,5.2,0,0,0-.57,0,2.2,2.2,0,0,0-.6.15,1.32,1.32,0,0,0-.48.32,0.77,0.77,0,0,0-.19.55,1,1,0,0,0,.14.58,0.59,0.59,0,0,0,.52.2,0.92,0.92,0,0,0,.28-0.06,2.06,2.06,0,0,0,.33-0.14l0.32-.19,0.24-.19V64Zm1.24,2.33-0.34.1a1.43,1.43,0,0,1-.35,0,0.58,0.58,0,0,1-.32-0.08,0.56,0.56,0,0,1-.18-0.33l0-.19-0.52.34a2,2,0,0,1-.41.22,1,1,0,0,1-.32.06,1.53,1.53,0,0,1-.73-0.15A1.14,1.14,0,0,1,126.1,66a1.16,1.16,0,0,1-.18-0.46,2.65,2.65,0,0,1,0-.43,1.4,1.4,0,0,1,.2-0.76,1.53,1.53,0,0,1,.54-0.51,2.73,2.73,0,0,1,.82-0.29,5.83,5.83,0,0,1,1-.1V63.08a1,1,0,0,0-.18-0.66,0.85,0.85,0,0,0-.7-0.23,2.7,2.7,0,0,0-.67.08l-0.56.17-0.18-.54a3.3,3.3,0,0,1,.73-0.3,2.94,2.94,0,0,1,.8-0.11,1.57,1.57,0,0,1,1.2.38,1.45,1.45,0,0,1,.35,1v3h0.47v0.5Z" style="fill:#2d2d2d"/><path d="M45.69,41.21h0L26.25,8.54c-1.79-3,.94-5.48,4.37-5.48l0.85-3H0.9L0,3.08H0c6.28,0,7.51,3.7,10.26,8.32L30.83,46a12,12,0,0,1,1.94,5.38c0.17,4.35-6,7.74-10.65,8a14.91,14.91,0,0,1-8.82-2.15l-1.54,2.08c1,4,4.83,8.56,10,8.53,9-.06,13.61-7.86,17.23-14.42Z" style="fill:#339C33;fill-rule:evenodd"/><path d="M58.13,74.54a0.94,0.94,0,0,0-.84.58A3.52,3.52,0,0,0,57,76.75q0,2.16,1.21,2.16a2.33,2.33,0,0,0,1.11-.31v1a2.34,2.34,0,0,1-1.25.3,2,2,0,0,1-1.74-.84,4,4,0,0,1-.61-2.35,3.92,3.92,0,0,1,.62-2.36,2,2,0,0,1,1.74-.85,2.6,2.6,0,0,1,.7.09,2.89,2.89,0,0,1,.72.33l-0.41.94a3.86,3.86,0,0,0-.44-0.24A1.2,1.2,0,0,0,58.13,74.54Z" style="fill:#339C33"/><path d="M64,75.1v4.75H62.76V76H61.39v3.83H60.17V75.1H64Z" style="fill:#339C33"/><path d="M66.9,79.93a1.89,1.89,0,0,1-1.51-.63,2.64,2.64,0,0,1-.55-1.79,3,3,0,0,1,.5-1.84,1.8,1.8,0,0,1,2.7-.1,2.36,2.36,0,0,1,.48,1.58v0.61H66.08a1.47,1.47,0,0,0,.28.94,0.91,0.91,0,0,0,.73.31,2.5,2.5,0,0,0,1.22-.35V79.6A2.83,2.83,0,0,1,66.9,79.93Zm-0.18-4a0.5,0.5,0,0,0-.43.26,1.63,1.63,0,0,0-.2.8h1.23a1.62,1.62,0,0,0-.17-0.79A0.49,0.49,0,0,0,66.73,75.88Z" style="fill:#339C33"/><path d="M73.14,79h0.69v2.58H72.62V79.85H69.33V75.1h1.22v3.83h1.37V75.1h1.23V79Z" style="fill:#339C33"/><path d="M75.58,75.1v2.2a13.58,13.58,0,0,1-.11,1.36l1.66-3.56h1.49v4.75H77.49V77.61a11.67,11.67,0,0,1,.11-1.35l-1.66,3.59H74.45V75.1h1.13Z" style="fill:#339C33"/><path d="M82.15,79.85l-0.24-.65h0a1.66,1.66,0,0,1-.56.57,1.49,1.49,0,0,1-.73.16,1.08,1.08,0,0,1-.89-0.39,1.67,1.67,0,0,1-.32-1.09,1.36,1.36,0,0,1,.44-1.11,2.19,2.19,0,0,1,1.32-.4l0.68,0V76.56a0.57,0.57,0,0,0-.62-0.66,2.23,2.23,0,0,0-1.05.33l-0.42-.78A3.2,3.2,0,0,1,81.39,75a1.65,1.65,0,0,1,1.23.43A1.68,1.68,0,0,1,83,76.66v3.19H82.15ZM81.1,79a0.62,0.62,0,0,0,.53-0.28,1.25,1.25,0,0,0,.2-0.74v-0.4l-0.37,0a0.89,0.89,0,0,0-.61.22,0.83,0.83,0,0,0-.19.6Q80.65,79,81.1,79Z" style="fill:#339C33"/><path d="M87.72,79.85H86.5V76H85.81a14.08,14.08,0,0,1-.3,2.29A2.87,2.87,0,0,1,85,79.54a1.15,1.15,0,0,1-.9.38,1.47,1.47,0,0,1-.56-0.09V78.9A0.68,0.68,0,0,0,84.39,78a18.74,18.74,0,0,0,.33-2.92h3v4.75Z" style="fill:#339C33"/><path d="M89.88,75.1v2.2a13.58,13.58,0,0,1-.11,1.36l1.66-3.56h1.49v4.75H91.78V77.61a11.67,11.67,0,0,1,.11-1.35l-1.66,3.59H88.75V75.1h1.13Z" style="fill:#339C33"/><path d="M95,76.95a1.21,1.21,0,0,0,.62-0.12,0.46,0.46,0,0,0,.2-0.42q0-.49-0.7-0.49a1.54,1.54,0,0,0-.46.07,2.29,2.29,0,0,0-.45.21l-0.44-.82A2.89,2.89,0,0,1,95.17,75a2.2,2.2,0,0,1,1.29.34,1.06,1.06,0,0,1,.48.92,1.08,1.08,0,0,1-1,1.07v0a1.49,1.49,0,0,1,.81.42,1.13,1.13,0,0,1,.28.78,1.16,1.16,0,0,1-.51,1,2.43,2.43,0,0,1-1.42.36,3.6,3.6,0,0,1-.8-0.09,2.67,2.67,0,0,1-.64-0.22v-1A2.86,2.86,0,0,0,95,79c0.55,0,.83-0.19.83-0.58a0.56,0.56,0,0,0-.2-0.47A1.07,1.07,0,0,0,95,77.8h-0.5V76.95H95Z" style="fill:#339C33"/><path d="M99,75.1v2.2a13.58,13.58,0,0,1-.11,1.36l1.66-3.56h1.49v4.75h-1.13V77.61a11.67,11.67,0,0,1,.11-1.35l-1.66,3.59H97.9V75.1H99Z" style="fill:#339C33"/><path d="M105.37,79.93a1.19,1.19,0,0,1-.58-0.14,1.35,1.35,0,0,1-.47-0.49h-0.07c0.05,0.39.07,0.62,0.07,0.7v1.94H103.1V75.1H104l0.21,0.62h0.06a1.19,1.19,0,0,1,1.1-.71,1.22,1.22,0,0,1,1.09.64,3.48,3.48,0,0,1,.39,1.81,3.42,3.42,0,0,1-.41,1.81A1.25,1.25,0,0,1,105.37,79.93ZM105,76a0.54,0.54,0,0,0-.51.31,2.44,2.44,0,0,0-.17,1v0.15a3.05,3.05,0,0,0,.16,1.14A0.55,0.55,0,0,0,105,79c0.43,0,.64-0.5.64-1.51a2.9,2.9,0,0,0-.16-1.11A0.52,0.52,0,0,0,105,76Z" style="fill:#339C33"/><path d="M111.52,77.46a2.79,2.79,0,0,1-.53,1.82,1.77,1.77,0,0,1-1.45.65,1.83,1.83,0,0,1-1-.3,1.9,1.9,0,0,1-.69-0.86,3.26,3.26,0,0,1-.24-1.31,2.79,2.79,0,0,1,.53-1.8,1.77,1.77,0,0,1,1.46-.65,1.74,1.74,0,0,1,1.43.66A2.78,2.78,0,0,1,111.52,77.46Zm-2.71,0a2.82,2.82,0,0,0,.17,1.12,0.58,0.58,0,0,0,.56.38q0.73,0,.73-1.5a2.72,2.72,0,0,0-.18-1.11,0.61,0.61,0,0,0-1.11,0A2.75,2.75,0,0,0,108.81,77.46Z" style="fill:#339C33"/><path d="M116,76.33a0.92,0.92,0,0,1-.25.67,1.26,1.26,0,0,1-.74.34v0a1.48,1.48,0,0,1,.84.34,0.94,0.94,0,0,1,.3.72,1.2,1.2,0,0,1-.52,1,2.56,2.56,0,0,1-1.48.36h-1.79V75.1h1.78Q116,75.1,116,76.33Zm-1.24.1c0-.31-0.22-0.47-0.67-0.47h-0.5v1H114a1.18,1.18,0,0,0,.6-0.12A0.44,0.44,0,0,0,114.76,76.43Zm0.13,1.94a0.47,0.47,0,0,0-.21-0.44A1.22,1.22,0,0,0,114,77.8h-0.46V79h0.48C114.62,79,114.89,78.79,114.89,78.37Z" style="fill:#339C33"/><path d="M119.4,79.85l-0.24-.65h0a1.65,1.65,0,0,1-.56.57,1.5,1.5,0,0,1-.73.16,1.08,1.08,0,0,1-.89-0.39,1.67,1.67,0,0,1-.32-1.09,1.36,1.36,0,0,1,.44-1.11,2.19,2.19,0,0,1,1.32-.4l0.68,0V76.56a0.57,0.57,0,0,0-.62-0.66,2.23,2.23,0,0,0-1.05.33L117,75.45a3.2,3.2,0,0,1,1.65-.45,1.65,1.65,0,0,1,1.23.43,1.68,1.68,0,0,1,.42,1.23v3.19H119.4Zm-1.06-.8a0.62,0.62,0,0,0,.53-0.28,1.25,1.25,0,0,0,.2-0.74v-0.4l-0.37,0a0.89,0.89,0,0,0-.61.22,0.82,0.82,0,0,0-.19.6Q117.9,79,118.34,79Z" style="fill:#339C33"/><path d="M122.49,75.1v1.85h1.38V75.1h1.23v4.75h-1.23v-2h-1.38v2h-1.22V75.1h1.22Z" style="fill:#339C33"/><path d="M127.34,75.1v1.85h1.38V75.1h1.23v4.75h-1.23v-2h-1.38v2h-1.22V75.1h1.22Z" style="fill:#339C33"/><path d="M132.18,77h0.37a2.57,2.57,0,0,1,1.49.35,1.2,1.2,0,0,1,.48,1q0,1.5-2,1.5H131V75.1h1.22V77Zm1.09,1.41a0.49,0.49,0,0,0-.2-0.44,1.16,1.16,0,0,0-.62-0.13h-0.27V79h0.29a1.05,1.05,0,0,0,.6-0.14A0.54,0.54,0,0,0,133.27,78.37Zm3.19,1.47h-1.23V75.1h1.23v4.75Z" style="fill:#339C33"/><path d="M138.61,75.1v2.2q0,0.41-.11,1.36l1.66-3.56h1.49v4.75h-1.13V77.61a11.7,11.7,0,0,1,.11-1.35L139,79.85h-1.48V75.1h1.13Zm2.62-1.92a1.54,1.54,0,0,1-.5,1,1.88,1.88,0,0,1-1.21.33,1.78,1.78,0,0,1-1.17-.33,1.51,1.51,0,0,1-.46-1.05h1a1,1,0,0,0,.2.58,0.6,0.6,0,0,0,.45.15,0.56,0.56,0,0,0,.45-0.17,1,1,0,0,0,.2-0.55h1Z" style="fill:#339C33"/><path d="M55.32,84.1h1.26l0.7,2.68a5.74,5.74,0,0,1,.17,1h0c0-.07,0-0.19,0-0.36L57.58,87q0-.15.63-2.9h1.28L58,89.19a2.9,2.9,0,0,1-.7,1.35,1.65,1.65,0,0,1-1.17.41,2.64,2.64,0,0,1-.64-0.07v-1a1.59,1.59,0,0,0,.42.05,0.82,0.82,0,0,0,.8-0.75l0.09-.3Z" style="fill:#339C33"/><path d="M61.18,84.1v1.76a0.79,0.79,0,0,0,.11.48,0.43,0.43,0,0,0,.36.15,1,1,0,0,0,.45-0.1,2.78,2.78,0,0,0,.39-0.24v-2h1.23v4.75H62.5V86.93a2.15,2.15,0,0,1-1.26.46,1.22,1.22,0,0,1-1-.36A1.54,1.54,0,0,1,60,86V84.1h1.22Z" style="fill:#339C33"/><path d="M66.63,88.93a1.89,1.89,0,0,1-1.51-.63,2.64,2.64,0,0,1-.55-1.79,3,3,0,0,1,.5-1.84,1.8,1.8,0,0,1,2.7-.1,2.36,2.36,0,0,1,.48,1.58v0.61H65.81a1.47,1.47,0,0,0,.28.94,0.91,0.91,0,0,0,.73.31A2.5,2.5,0,0,0,68,87.67V88.6A2.83,2.83,0,0,1,66.63,88.93Zm-0.18-4a0.5,0.5,0,0,0-.43.26,1.63,1.63,0,0,0-.2.8h1.23a1.62,1.62,0,0,0-.17-0.79A0.49,0.49,0,0,0,66.45,84.89Z" style="fill:#339C33"/><path d="M68.88,86.1a5,5,0,0,1,.5-2.47A2.55,2.55,0,0,1,71,82.47a14.87,14.87,0,0,1,1.69-.3l0.14,1L72,83.29a4.12,4.12,0,0,0-1.16.31,1.25,1.25,0,0,0-.57.56,2.54,2.54,0,0,0-.23,1h0a1.53,1.53,0,0,1,.52-0.54,1.28,1.28,0,0,1,.67-0.18,1.32,1.32,0,0,1,1.13.55,2.56,2.56,0,0,1,.4,1.53,2.75,2.75,0,0,1-.52,1.78,1.77,1.77,0,0,1-1.45.64,1.68,1.68,0,0,1-1.46-.74A3.64,3.64,0,0,1,68.88,86.1Zm2,1.87q0.69,0,.69-1.34T71,85.32a0.75,0.75,0,0,0-.5.2,1.15,1.15,0,0,0-.34.51Q70.12,88,70.9,88Z" style="fill:#339C33"/><path d="M74.9,84.1v1.85h1.38V84.1H77.5v4.75H76.28v-2H74.9v2H73.69V84.1H74.9Z" style="fill:#339C33"/><path d="M82.3,86.47a2.79,2.79,0,0,1-.53,1.82,1.78,1.78,0,0,1-1.45.65,1.83,1.83,0,0,1-1-.3,1.9,1.9,0,0,1-.69-0.86,3.28,3.28,0,0,1-.24-1.31,2.79,2.79,0,0,1,.53-1.8A1.77,1.77,0,0,1,80.34,84a1.75,1.75,0,0,1,1.43.66A2.78,2.78,0,0,1,82.3,86.47Zm-2.71,0a2.79,2.79,0,0,0,.17,1.12,0.58,0.58,0,0,0,.56.38q0.73,0,.73-1.5a2.69,2.69,0,0,0-.18-1.11,0.6,0.6,0,0,0-1.11,0A2.72,2.72,0,0,0,79.6,86.47Z" style="fill:#339C33"/><path d="M83,87V86h2.3v1H83Z" style="fill:#339C33"/><path d="M87.33,84.1v1.85h1.38V84.1h1.23v4.75H88.71v-2H87.33v2H86.12V84.1h1.22Z" style="fill:#339C33"/><path d="M93.46,88.85l-0.24-.65h0a1.66,1.66,0,0,1-.56.57,1.49,1.49,0,0,1-.73.16A1.08,1.08,0,0,1,91,88.54a1.67,1.67,0,0,1-.32-1.09,1.36,1.36,0,0,1,.44-1.11,2.19,2.19,0,0,1,1.32-.4l0.68,0V85.57a0.57,0.57,0,0,0-.62-0.66,2.23,2.23,0,0,0-1.05.33L91,84.45A3.2,3.2,0,0,1,92.69,84a1.65,1.65,0,0,1,1.23.43,1.68,1.68,0,0,1,.42,1.23v3.19H93.46ZM92.4,88a0.62,0.62,0,0,0,.53-0.28,1.25,1.25,0,0,0,.2-0.74v-0.4l-0.37,0a0.89,0.89,0,0,0-.61.22,0.83,0.83,0,0,0-.19.6Q92,88,92.4,88Z" style="fill:#339C33"/><path d="M94.82,84.1h1.26l0.7,2.68a5.74,5.74,0,0,1,.17,1h0c0-.07,0-0.19,0-0.36L97.08,87q0-.15.63-2.9H99l-1.46,5.09a2.9,2.9,0,0,1-.7,1.35,1.65,1.65,0,0,1-1.17.41A2.64,2.64,0,0,1,95,90.87v-1a1.59,1.59,0,0,0,.42.05,0.82,0.82,0,0,0,.8-0.75l0.09-.3Z" style="fill:#339C33"/><path d="M100.68,84.1v1.76a0.79,0.79,0,0,0,.11.48,0.43,0.43,0,0,0,.36.15,1,1,0,0,0,.45-0.1,2.78,2.78,0,0,0,.39-0.24v-2h1.23v4.75H102V86.93a2.15,2.15,0,0,1-1.26.46,1.22,1.22,0,0,1-1-.36A1.54,1.54,0,0,1,99.46,86V84.1h1.22Z" style="fill:#339C33"/><path d="M105.46,84.1v1.85h1.38V84.1h1.23v4.75h-1.23v-2h-1.38v2h-1.22V84.1h1.22Z" style="fill:#339C33"/><path d="M110.31,86h0.37a2.57,2.57,0,0,1,1.49.35,1.2,1.2,0,0,1,.48,1q0,1.5-2,1.5h-1.55V84.1h1.22V86Zm1.09,1.41a0.49,0.49,0,0,0-.2-0.44,1.16,1.16,0,0,0-.62-0.13h-0.27V88h0.29a1.05,1.05,0,0,0,.6-0.14A0.54,0.54,0,0,0,111.4,87.37Zm3.19,1.47h-1.23V84.1h1.23v4.75Z" style="fill:#339C33"/><path d="M116.74,84.1v2.2q0,0.41-.11,1.36l1.66-3.56h1.49v4.75h-1.13V86.61a11.7,11.7,0,0,1,.11-1.35l-1.66,3.59h-1.48V84.1h1.13Zm2.62-1.92a1.54,1.54,0,0,1-.5,1,1.88,1.88,0,0,1-1.21.33,1.78,1.78,0,0,1-1.17-.33,1.51,1.51,0,0,1-.46-1.05h1a1,1,0,0,0,.2.58,0.6,0.6,0,0,0,.45.15,0.56,0.56,0,0,0,.45-0.17,1,1,0,0,0,.2-0.55h1Z" style="fill:#339C33"/><path d="M126.93,88h0.69v2.58H126.4V88.85h-3.28V84.1h1.22v3.83h1.37V84.1h1.23V88Z" style="fill:#339C33"/><path d="M130.12,88.93a1.89,1.89,0,0,1-1.51-.63,2.64,2.64,0,0,1-.55-1.79,3,3,0,0,1,.5-1.84,1.8,1.8,0,0,1,2.7-.1,2.36,2.36,0,0,1,.48,1.58v0.61H129.3a1.47,1.47,0,0,0,.28.94,0.91,0.91,0,0,0,.73.31,2.5,2.5,0,0,0,1.22-.35V88.6A2.83,2.83,0,0,1,130.12,88.93Zm-0.18-4a0.5,0.5,0,0,0-.43.26,1.63,1.63,0,0,0-.2.8h1.23a1.61,1.61,0,0,0-.17-0.79A0.49,0.49,0,0,0,129.94,84.89Z" style="fill:#339C33"/><path d="M133.77,84.1v1.85h1.38V84.1h1.23v4.75h-1.23v-2h-1.38v2h-1.22V84.1h1.22Z" style="fill:#339C33"/><path d="M140.53,84.1V85H139.4v3.83h-1.22V85H137V84.1h3.48Z" style="fill:#339C33"/><path d="M143.49,88.93a1.19,1.19,0,0,1-.58-0.14,1.35,1.35,0,0,1-.47-0.49h-0.06c0,0.39.07,0.62,0.07,0.7v1.94h-1.23V84.1h0.94l0.21,0.62h0.06a1.19,1.19,0,0,1,1.1-.71,1.22,1.22,0,0,1,1.09.64,3.48,3.48,0,0,1,.39,1.81,3.42,3.42,0,0,1-.41,1.81A1.25,1.25,0,0,1,143.49,88.93Zm-0.38-4a0.54,0.54,0,0,0-.51.31,2.47,2.47,0,0,0-.17,1v0.15a3,3,0,0,0,.16,1.14,0.55,0.55,0,0,0,.53.36q0.64,0,.64-1.51a2.93,2.93,0,0,0-.16-1.11A0.52,0.52,0,0,0,143.11,85Z" style="fill:#339C33"/></svg>